# xmcd CD database file
#
# Track frame offsets:
#	150
#	24664
#	55140
#	74487
#	98942
#	120847
#	154161
#
# Disc length: 2318 seconds
#
# Revision: 0
# Processed by: cddbd v1.5.2PL0 Copyright (c) Steve Scherf et al.
# Submitted via: CDex 1.51
#
DISCID=56090c07
DTITLE=Dave Brubeck - take five
DYEAR=1959
DGENRE=Jazz
TTITLE0=Take Five
TTITLE1=Blue Rondo A La Turk
TTITLE2=Pick Up Sticks
TTITLE3=Three To Get Ready
TTITLE4=Kathy's Waltz
TTITLE5=Stange Meadow Lark
TTITLE6=Everybody's Jumin
EXTD=YEAR: 1959
EXTT0=
EXTT1=
EXTT2=
EXTT3=
EXTT4=
EXTT5=
EXTT6=
PLAYORDER=
